<?xml version="1.0" encoding="UTF-8"?>
<svg id="Layer_1" data-name="Layer 1" xmlns="http://www.w3.org/2000/svg" viewBox="0 0 577.17 577.17">
  <defs>
    <style>
      .cls-1 {
        fill: #fef4ea;
        opacity: .58;
        stroke-width: 0px;
      }
    </style>
  </defs>
  <path class="cls-1" d="M577.17,288.59c0,159.38-129.2,288.59-288.59,288.59-49.9,0-96.83-12.67-137.78-34.95l201.57-270.6,7.63,132.34c.62,10.66,9.75,18.8,20.41,18.19l44.8-2.59c10.66-.62,18.8-9.75,18.18-20.41l-11.08-191.95-1.38-23.78-3.43-59.61-275.36,15.89c-10.66.62-18.79,9.75-18.18,20.41l2.59,44.8c.61,10.66,9.75,18.8,20.41,18.18l133.63-7.71L48.58,448.89C17.9,403.03,0,347.9,0,288.59,0,129.2,129.2,0,288.59,0s288.59,129.2,288.59,288.59Z"/>
</svg>