<?xml version="1.0" encoding="UTF-8"?>
<svg id="Layer_1" data-name="Layer 1" xmlns="http://www.w3.org/2000/svg" viewBox="0 0 780.64 780.64">
  <defs>
    <style>
      .cls-1 {
        fill: #d9bf9e;
        stroke-width: 0px;
      }

      .cls-2 {
        fill: none;
        stroke: #fff;
        stroke-miterlimit: 10;
        stroke-width: 20.86px;
      }
    </style>
  </defs>
  <g>
    <path class="cls-1" d="M367.19,15.99c15.56,0,31.12,0,46.67,0,12.71,1.66,25.5,2.89,38.13,5.05,70.13,11.99,132.18,41.29,185.32,88.59,64.97,57.82,105.6,129.62,120.87,215.43,2.42,13.58,3.85,27.33,5.73,41v46.67c-1.09,8.88-2.03,17.79-3.29,26.65-11.57,80.91-44.74,151.78-102.5,209.59-95.85,95.93-211.62,131.64-344.65,105.39-90.8-17.91-164.44-65.97-220.16-139.69C28.86,529.39,5.42,433,22.47,327.45c12.45-77.07,46.99-143.49,101.64-199.16,55.93-56.97,123.34-92.69,202.09-106.56,13.58-2.39,27.32-3.85,40.99-5.74ZM390.72,219.71c-63.19,0-126.37-.02-189.56,0-32.08.02-51.26,19.19-51.27,51.19-.02,78.98-.02,157.96,0,236.94,0,32.01,19.19,51.2,51.25,51.21,126.13.03,252.26-.38,378.38.28,32.19.17,52.19-23.65,51.91-51.85-.78-78.73-.78-157.48,0-236.21.28-28.24-19.78-52.32-51.9-51.84-62.93.92-125.88.27-188.82.27Z"/>
    <path class="cls-1" d="M592.5,277.87v9.69c0,72.67,0,145.34,0,218.01,0,13.59-1.46,15.03-15.04,15.04-124.93,0-249.85,0-374.78,0-12.22,0-14.11-1.81-14.12-13.75-.02-73.4-.01-146.8,0-220.2,0-2.33.19-4.67.36-8.42,7.62,5.98,14.25,11.13,20.82,16.34,55.37,43.97,110.73,87.95,166.1,131.93,10.72,8.51,18.62,8.55,29.44-.04,59-46.82,117.98-93.67,176.96-140.51,2.83-2.24,5.66-4.47,10.25-8.09Z"/>
    <path class="cls-1" d="M227,258.48h326.91c-2.31,2.15-3.71,3.64-5.29,4.89-50.99,40.51-102.03,80.95-152.95,121.55-3.59,2.86-5.93,3.46-9.85.33-51.66-41.23-103.46-82.27-155.22-123.38-.92-.73-1.71-1.6-3.61-3.4Z"/>
  </g>
  <circle class="cls-2" cx="390.32" cy="390.32" r="379.89"/>
</svg>