<?xml version="1.0" encoding="UTF-8"?>
<svg id="Layer_1" data-name="Layer 1" xmlns="http://www.w3.org/2000/svg" viewBox="0 0 587.81 707.61">
  <defs>
    <style>
      .cls-1 {
        fill: #cf9b85;
        opacity: .8;
        stroke-width: 0px;
      }
    </style>
  </defs>
  <path class="cls-1" d="M587.81,293.9v309.13h-171.54v-.33c0-70.6-57.23-127.82-127.82-127.82s-127.82,57.23-127.82,127.82v.33H0v-309.13C0,131.58,131.58,0,293.91,0s293.9,131.58,293.9,293.9Z"/>
  <path class="cls-1" d="M288.44,497.78c-57.95,0-104.91,46.98-104.91,104.91v.33c.17,57.8,47.06,104.58,104.91,104.58s104.74-46.79,104.91-104.58v-.33c0-57.93-46.98-104.91-104.91-104.91ZM330.25,608.03c5.61,5.71,9.32,12.51,10.94,20.34.64,3.14.91,6.38,1,9.59.17,5.28.05,10.58.05,15.87,0,3.71-1.78,5.49-5.45,5.49h-96.48c-4.02,0-5.73-1.67-5.69-5.73.03-6.49-.07-12.97.22-19.46.36-7.63,3.02-14.58,7.4-20.84,2.88-4.09,6.26-7.52,10.14-10.27,3.36-2.42,7.09-4.3,11.21-5.69,4.43-1.48,9.01-2.14,13.65-2.14,8.35,0,16.7-.14,25.05.17,8.33.31,15.72,2.97,22.15,7.66,2.04,1.47,3.97,3.14,5.8,5ZM258.89,558.82c1.1-12.87,11.75-24.12,24.62-26.05.81-.14,1.62-.31,2.43-.47h4.95c2.73.67,5.56,1.02,8.13,2.05,10.44,4.17,16.77,11.89,18.68,23,1.54,9.01-1.29,17.84-7.04,24.33-2.79,3.16-6.26,5.75-10.27,7.56-10.13,4.55-23.26,2.62-31.45-4.8-.93-.84-1.79-1.71-2.61-2.59-5.75-6.38-8.23-14.08-7.45-23.03Z"/>
</svg>