<?xml version="1.0" encoding="UTF-8"?>
<svg id="Layer_1" data-name="Layer 1" xmlns="http://www.w3.org/2000/svg" viewBox="0 0 851.09 851.09">
  <defs>
    <style>
      .cls-1 {
        fill: #cf9b85;
        opacity: .8;
        stroke-width: 0px;
      }
    </style>
  </defs>
  <path class="cls-1" d="M425.54,0C190.48,0,0,190.55,0,425.54v1.33c.7,234.43,190.9,424.21,425.54,424.21s424.84-189.78,425.54-424.21v-1.33C851.09,190.55,660.53,0,425.54,0ZM595.1,447.17c22.74,23.16,37.79,50.73,44.37,82.5,2.59,12.74,3.71,25.89,4.06,38.91.7,21.41.21,42.9.21,64.38,0,15.04-7.21,22.25-22.11,22.25H230.3c-16.3,0-23.23-6.79-23.09-23.23.14-26.31-.28-52.62.91-78.93,1.47-30.93,12.25-59.13,30.02-84.54,11.69-16.59,25.4-30.51,41.15-41.64,13.65-9.8,28.76-17.42,45.49-23.09,17.98-6.02,36.53-8.68,55.35-8.68,33.87,0,67.74-.56,101.61.7,33.8,1.26,63.75,12.04,89.85,31.07,8.26,5.95,16.1,12.74,23.51,20.3ZM305.67,247.59c4.48-52.2,47.66-97.83,99.86-105.67,3.29-.56,6.58-1.26,9.87-1.89h20.08c11.06,2.73,22.53,4.13,32.96,8.33,42.34,16.93,68.02,48.22,75.79,93.28,6.23,36.53-5.25,72.36-28.55,98.67-11.34,12.81-25.4,23.3-41.64,30.65-41.08,18.48-94.33,10.64-127.57-19.46-3.78-3.43-7.28-6.93-10.57-10.5-23.3-25.89-33.38-57.1-30.23-93.42Z"/>
</svg>