<?xml version="1.0" encoding="UTF-8"?>
<svg id="Layer_1" data-name="Layer 1" xmlns="http://www.w3.org/2000/svg" viewBox="0 0 551.05 551.11">
  <defs>
    <style>
      .cls-1 {
        fill: #d9bf9e;
      }

      .cls-1, .cls-2 {
        stroke-width: 0px;
      }

      .cls-3 {
        fill: none;
        stroke: #fff;
        stroke-miterlimit: 10;
        stroke-width: 8.72px;
      }

      .cls-2 {
        fill: #9e8474;
        fill-rule: evenodd;
      }
    </style>
  </defs>
  <g>
    <path class="cls-1" d="M546.69,275.55c0,149.88-121.51,271.2-271.26,271.2S4.36,425.43,4.36,275.55,125.68,4.36,275.43,4.36s271.26,121.43,271.26,271.2Z"/>
    <path class="cls-3" d="M546.69,275.55c0,149.88-121.51,271.2-271.26,271.2S4.36,425.43,4.36,275.55,125.68,4.36,275.43,4.36s271.26,121.43,271.26,271.2Z"/>
  </g>
  <g>
    <path class="cls-2" d="M436.24,236.76c-17.95-75.07-82.72-126.25-160.81-127.39-10.3.5-21.42,1.26-31.53,3.29-109.5,21.86-165.86,142.8-112.91,240.23,1.89,2.78,1.89,5.19,1.52,8.22-7.71,25.14-14.78,51.05-21.61,76.58q-1.14,4.43,3.1,3.29c26.73-7.34,53.2-14.03,79.87-20.73,2.34-.63,3.98-.63,5.94.39,34.25,17.43,70.39,22.23,108.3,15.28,90.43-17.56,149.76-109.68,128.15-199.16ZM298.62,409.37c-7.89,1.53-15.3,2.15-19.02,1.64-29.13,0-52.57-6.44-74.37-19.07-3.1-1.9-5.44-2.41-8.4-1.4-14.91,3.68-29.44,7.71-44.23,11.5-3.03.88-3.35.38-2.65-2.78,3.92-13.52,7.58-27.42,11.88-41.58.95-3.79.69-6.69-1.71-9.85-29.89-48.53-28.56-108.56,4.87-153.55,34.82-46.5,82.65-65.84,139.45-53.7,56.05,11.75,91.94,48.27,104.7,104,18.13,76.32-33.43,152.28-110.51,164.79Z"/>
    <path class="cls-2" d="M318.59,352.89c-5.76.5-11.57-.5-17.12-2.28-37.73-10.99-66.29-34.11-89.22-65.58-8.53-11.62-16.68-24.13-19.15-38.8-3.48-17.06,1.89-32.35,14.85-44.1,4.3-4.05,16.87-5.94,21.99-3.29,1.64,1.38,2.59,2.78,3.66,4.43,4.68,11.75,9.67,22.62,14.41,33.74.69,2.28.57,4.67-.69,6.95-2.53,5.19-6.38,9.36-10.11,13.65-3.16,2.65-3.16,5.81-1.01,9.1,13.52,22.49,31.78,38.67,56.3,48.28,3.55,1.51,6.26.88,8.48-1.9,4.23-4.93,8.4-10.24,12.32-15.41,2.39-3.29,5.62-3.79,9.16-2.28,8.09,3.66,16.05,7.45,23.76,10.99,2.15,1.14,3.66,1.9,5.55,2.54,8.15,4.17,8.15,4.67,7.21,13.39-1.07,17.31-14.29,26.04-29.39,30.2-4.1.88-7.39.88-10.99.38Z"/>
  </g>
</svg>