<?xml version="1.0" encoding="UTF-8"?>
<svg id="Layer_1" data-name="Layer 1" xmlns="http://www.w3.org/2000/svg" viewBox="0 0 784.56 784.56">
  <defs>
    <style>
      .cls-1 {
        fill: none;
        stroke-width: 16.08px;
      }

      .cls-1, .cls-2 {
        stroke: #fff;
        stroke-miterlimit: 10;
      }

      .cls-2 {
        fill: #d9bf9e;
        stroke-width: 1.21px;
      }
    </style>
  </defs>
  <g>
    <path class="cls-2" d="M392.17,772.46c-210-.06-380.25-170.7-380.01-380.86C12.41,181.99,183.03,11.87,392.76,12.11c209.72.24,379.77,170.66,379.64,380.45-.13,209.73-170.51,379.96-380.22,379.9ZM626.4,392.61c.23,0,.45,0,.68,0,0-28.38.2-56.76-.1-85.13-.12-11.11-.53-22.33-2.18-33.3-7.33-48.63-31.36-84.9-78.51-103.32-19.55-7.64-40.07-10.9-60.95-10.98-59.53-.23-119.06-.24-178.59.05-12.61.06-25.37.82-37.79,2.89-47.91,7.99-83.41,32.43-101.15,79.11-7.27,19.13-10.28,39.12-10.3,59.54-.04,59.03-.13,118.07.08,177.1.04,10.85.58,21.83,2.24,32.54,7.01,45.14,28.61,80.16,71.44,99.65,21.05,9.58,43.49,13.73,66.43,13.86,63.08.36,126.16.41,189.23-.02,24.49-.17,48.38-4.75,70.53-15.84,45.45-22.75,65.48-62.22,68.5-110.56,2.19-35.07.43-70.39.43-105.6Z"/>
    <path class="cls-2" d="M392.47,203.82c30.91,0,61.83-.29,92.73.17,10.31.15,20.8,1.32,30.84,3.61,37.3,8.51,61.42,35.7,66.18,73.96,1.03,8.27,1.55,16.66,1.57,24.99.13,58.29.51,116.59-.24,174.87-.18,14.2-2.38,28.98-6.91,42.39-11.71,34.69-38.07,53.16-73.64,55.13-44.22,2.46-88.61,2.23-132.93,2.36-29.37.09-58.82-.05-88.09-2.18-44.71-3.26-74.72-33.58-79.82-78.4-.89-7.78-1.4-15.65-1.42-23.48-.11-58.54-.48-117.09.26-175.63.17-13.69,2.56-27.91,6.94-40.87,11.74-34.73,38.12-52.54,73.65-55.22,30.77-2.32,61.75-1.78,92.64-2.45,6.08-.13,12.16-.02,18.24-.02,0,.26,0,.51,0,.77ZM391.81,515.85c67.8.64,123.52-54.3,124.03-122.3.52-68.36-53.62-123.96-121.55-124.84-69-.9-124.78,53.45-125.55,122.31-.76,68.73,53.9,124.18,123.07,124.83ZM517,293.89c13.54-.17,24.44-11.32,24.25-24.82-.19-13.57-11.18-24.38-24.77-24.36-13.89.02-25.01,11.44-24.61,25.24.4,13.69,11.35,24.11,25.12,23.94Z"/>
    <path class="cls-2" d="M393.36,312.59c44.46.87,79.55,36.92,78.6,80.76-.96,44.52-36.88,79.48-80.76,78.61-44.38-.88-79.57-37.03-78.62-80.77.96-44.48,36.91-79.46,80.78-78.6Z"/>
  </g>
  <circle class="cls-1" cx="392.28" cy="392.28" r="384.24"/>
</svg>