<?xml version="1.0" encoding="UTF-8"?>
<svg id="Layer_1" data-name="Layer 1" xmlns="http://www.w3.org/2000/svg" viewBox="0 0 546.75 546.74">
  <defs>
    <style>
      .cls-1 {
        fill: #d9bf9e;
      }

      .cls-1, .cls-2 {
        stroke-width: 0px;
      }

      .cls-2 {
        fill: #fff;
      }
    </style>
  </defs>
  <g>
    <path class="cls-1" d="M539.31,256.71v33.26c-.43,3.41-.9,6.82-1.27,10.24-5.7,52.63-24.76,99.85-58.35,140.79-41.77,50.91-95.2,82.52-160.1,94.33-9.83,1.79-19.8,2.77-29.71,4.12h-33.26c-1.33-.29-2.65-.75-3.99-.86-58.1-4.73-109.71-25.6-153.31-64.27C31.09,413.8.75,337.36,8.67,246.6c4.95-56.7,27.21-106.75,65.2-149.17C125.76,39.48,190.98,9.28,268.78,7.39c50.34-1.23,97.56,11.08,140.52,37.41,68.81,42.18,111.08,103.11,125.92,182.67,1.8,9.66,2.74,19.49,4.08,29.24ZM429.29,409.33c.09-1.96.22-3.49.22-5.02.01-35.16.09-70.31-.06-105.47-.03-7.42-.52-14.89-1.43-22.26-4.68-37.96-27.41-61.82-64-66.05-26.26-3.04-48.57,4.83-64.44,27.21-.64.9-1.43,1.7-3.11,3.68v-26.62h-64.39v194.41h64.46v-6.44c0-25.98-.03-51.96.02-77.93.02-10.21-.02-20.44.42-30.64.5-11.73,6.43-20.74,15.81-27.29,18.67-13.02,42.83-4.75,49.02,17.06,2.04,7.21,2.73,15,2.8,22.53.29,32.38.13,64.77.13,97.16,0,1.84,0,3.67,0,5.68h64.54ZM131.46,214.44v194.74h64.55v-6.46c0-58.2,0-116.4,0-174.6,0-2.94-.24-5.91.06-8.83.41-4-1.25-4.96-5.04-4.92-16.97.18-33.94.08-50.92.08-2.74,0-5.48,0-8.65,0ZM161.67,120.54c-11.74.43-23.93,4.99-30.82,18.58-8.87,17.49-1.06,38.33,16.93,45.85,20.32,8.51,44.28-.8,50.61-19.66,7.73-23.02-8.75-44.66-36.71-44.77Z"/>
    <path class="cls-2" d="M256.62,539.76c-.47-.1-.88-.21-1.29-.31-.9-.24-1.82-.48-2.73-.55-59.12-4.81-110.77-26.46-153.49-64.35C30.96,414.11.43,337.41,8.36,246.57c4.9-56.21,26.87-106.46,65.28-149.36C125.51,39.29,191.16,8.97,268.78,7.08c2.26-.05,4.52-.08,6.78-.08,48.22,0,93.24,12.62,133.9,37.54,34.34,21.05,62.36,47.09,83.29,77.4,21,30.42,35.4,65.9,42.78,105.48,1.23,6.63,2.08,13.44,2.89,20.02.37,3.03.77,6.16,1.19,9.24v.04s0,33.26,0,33.26c-.14,1.11-.28,2.18-.42,3.25-.3,2.3-.6,4.68-.86,7.02-5.77,53.31-25.43,100.74-58.42,140.96-41.77,50.91-95.69,82.69-160.28,94.43-6.74,1.23-13.65,2.09-20.33,2.93-3.08.37-6.27.78-9.39,1.21h-33.3ZM275.56,7.62c-2.25,0-4.5.03-6.77.08-77.43,1.88-142.94,32.14-194.69,89.93C35.79,140.42,13.88,190.55,8.98,246.62c-7.91,90.63,22.55,167.17,90.55,227.47,42.61,37.79,94.14,59.38,153.12,64.18.97.08,1.92.33,2.84.57.4.1.8.21,1.2.3h33.19c3.09-.44,6.27-.83,9.36-1.22,6.67-.82,13.58-1.69,20.29-2.91,64.44-11.72,118.24-43.43,159.91-94.23,32.91-40.12,52.52-87.44,58.29-140.62.26-2.35.56-4.73.86-7.03.14-1.07.28-2.15.41-3.22v-33.2c-.42-3.07-.81-6.2-1.19-9.22-.82-6.58-1.66-13.38-2.89-19.98-14.72-78.94-57.05-140.33-125.78-182.46-40.56-24.87-85.48-37.45-133.58-37.45ZM429.59,409.64h-65.15v-5.99c0-8.63.02-17.27.03-25.91.03-23.36.06-47.5-.15-71.25-.08-8.77-.99-16.11-2.79-22.45-2.88-10.16-9.94-17.92-19.36-21.28-9.63-3.45-20.27-1.83-29.19,4.4-9.93,6.93-15.21,16.03-15.68,27.05-.39,9.09-.41,18.36-.42,27.32v3.3c-.04,18.4-.04,37.11-.03,55.21,0,7.58.01,15.15.01,22.73v6.75h-65.09v-195.04h65.02v26.09c.39-.45.72-.83,1.01-1.17.69-.79,1.14-1.3,1.54-1.85,15.14-21.35,36.93-30.59,64.72-27.33,18.23,2.11,33.09,9,44.15,20.47,11.01,11.41,17.77,26.83,20.12,45.85.92,7.46,1.4,14.97,1.43,22.3.11,27.14.09,54.73.07,81.41,0,8.03-.01,16.05-.01,24.06,0,1.01-.06,1.99-.12,3.12-.04.59-.07,1.23-.1,1.91l-.02.3ZM365.07,409.02h63.93c.03-.57.06-1.11.09-1.62.07-1.12.12-2.09.12-3.08,0-8.02.01-16.04.02-24.06.02-26.68.04-54.27-.08-81.41-.03-7.31-.51-14.79-1.42-22.23-4.71-38.21-27.34-61.57-63.73-65.78-27.6-3.21-49.15,5.92-64.14,27.08-.41.58-.87,1.1-1.57,1.9-.42.48-.92,1.06-1.56,1.81l-.55.65v-27.16h-63.77v193.79h63.84v-6.12c0-7.58,0-15.15,0-22.73,0-18.1-.02-36.81.02-55.21v-3.3c.02-8.98.03-18.24.42-27.34.48-11.22,5.85-20.49,15.95-27.54,9.11-6.35,19.95-7.97,29.75-4.47,9.61,3.43,16.81,11.34,19.75,21.7,1.82,6.39,2.73,13.79,2.82,22.62.21,23.75.18,47.9.15,71.25-.01,8.63-.02,17.27-.02,25.91v5.36ZM196.32,409.49h-65.17v-195.36h8.97c8.99.01,17.95.04,27.07.03,7.93,0,15.93-.02,23.84-.11h.23c2.21,0,3.51.37,4.3,1.24.76.83,1.03,2.11.83,4.02-.2,1.99-.15,4.06-.1,6.06.02.92.05,1.83.05,2.74v181.37ZM131.77,408.86h63.92v-180.75c0-.91-.02-1.82-.04-2.73-.05-2.01-.1-4.1.1-6.13.17-1.73-.04-2.85-.67-3.54-.66-.72-1.81-1.04-3.83-1.04-.07,0-.15,0-.22,0-12.45.13-25.1.1-37.35.09-4.52,0-9.05-.01-13.57-.01h-8.34v194.11ZM163.63,188.47c-5.42,0-10.86-1.07-15.97-3.21-8.83-3.7-15.48-10.61-18.74-19.46-3.24-8.81-2.65-18.34,1.66-26.82,7.52-14.84,21.06-18.39,31.09-18.75h.01c14.07.06,26.12,5.64,33.04,15.31,6.15,8.59,7.56,19.2,3.97,29.88-2.86,8.5-9.35,15.41-18.27,19.45-5.29,2.4-11.03,3.6-16.79,3.6ZM161.67,120.86c-9.86.36-23.16,3.85-30.55,18.41-4.23,8.33-4.81,17.68-1.62,26.32,3.2,8.69,9.73,15.47,18.4,19.1,10.36,4.34,22.12,4.2,32.26-.39,8.76-3.97,15.13-10.75,17.93-19.09,3.52-10.49,2.15-20.9-3.88-29.32-6.8-9.5-18.66-14.98-32.53-15.04Z"/>
  </g>
  <path class="cls-2" d="M273.37,546.74C122.64,546.74,0,424.11,0,273.38S122.64,0,273.37,0s273.38,122.64,273.38,273.38-122.64,273.36-273.38,273.36ZM273.37,11.11C128.76,11.11,11.11,128.76,11.11,273.38s117.65,262.26,262.26,262.26,262.27-117.65,262.27-262.26S417.99,11.11,273.37,11.11Z"/>
</svg>